<mxfile host="app.diagrams.net" agent="Mozilla/5.0 (Windows NT 10.0; Win64; x64) AppleWebKit/537.36 (KHTML, like Gecko) Chrome/131.0.0.0 Safari/537.36" version="26.0.2">
  <diagram name="Page-1" id="1-_wTKGZhKiN3ToNpzbP">
    <mxGraphModel dx="1259" dy="686" grid="1" gridSize="10" guides="1" tooltips="1" connect="1" arrows="1" fold="1" page="1" pageScale="1" pageWidth="850" pageHeight="1100" math="0" shadow="0">
      <root>
        <mxCell id="0" />
        <mxCell id="1" parent="0" />
        <mxCell id="a-fWuGN9TzDFCbzUmAFx-13" style="edgeStyle=orthogonalEdgeStyle;rounded=0;orthogonalLoop=1;jettySize=auto;html=1;entryX=0.5;entryY=0;entryDx=0;entryDy=0;" edge="1" parent="1" source="a-fWuGN9TzDFCbzUmAFx-1" target="a-fWuGN9TzDFCbzUmAFx-2">
          <mxGeometry relative="1" as="geometry" />
        </mxCell>
        <mxCell id="a-fWuGN9TzDFCbzUmAFx-1" value="&lt;b&gt;Start&lt;/b&gt;" style="strokeWidth=2;html=1;shape=mxgraph.flowchart.start_2;whiteSpace=wrap;" vertex="1" parent="1">
          <mxGeometry x="310" y="40" width="100" height="100" as="geometry" />
        </mxCell>
        <mxCell id="a-fWuGN9TzDFCbzUmAFx-14" style="edgeStyle=orthogonalEdgeStyle;rounded=0;orthogonalLoop=1;jettySize=auto;html=1;entryX=0.5;entryY=0;entryDx=0;entryDy=0;" edge="1" parent="1" source="a-fWuGN9TzDFCbzUmAFx-2" target="a-fWuGN9TzDFCbzUmAFx-3">
          <mxGeometry relative="1" as="geometry" />
        </mxCell>
        <mxCell id="a-fWuGN9TzDFCbzUmAFx-2" value="&lt;b&gt;Execute&lt;/b&gt;" style="rounded=1;whiteSpace=wrap;html=1;absoluteArcSize=1;arcSize=14;strokeWidth=2;" vertex="1" parent="1">
          <mxGeometry x="310" y="210" width="100" height="100" as="geometry" />
        </mxCell>
        <mxCell id="a-fWuGN9TzDFCbzUmAFx-3" value="&lt;b&gt;Execute&lt;/b&gt;" style="rounded=1;whiteSpace=wrap;html=1;absoluteArcSize=1;arcSize=14;strokeWidth=2;" vertex="1" parent="1">
          <mxGeometry x="310" y="380" width="100" height="100" as="geometry" />
        </mxCell>
        <mxCell id="a-fWuGN9TzDFCbzUmAFx-7" style="edgeStyle=orthogonalEdgeStyle;rounded=0;orthogonalLoop=1;jettySize=auto;html=1;entryX=0.5;entryY=0;entryDx=0;entryDy=0;" edge="1" parent="1" source="a-fWuGN9TzDFCbzUmAFx-4" target="a-fWuGN9TzDFCbzUmAFx-5">
          <mxGeometry relative="1" as="geometry" />
        </mxCell>
        <mxCell id="a-fWuGN9TzDFCbzUmAFx-8" style="edgeStyle=orthogonalEdgeStyle;rounded=0;orthogonalLoop=1;jettySize=auto;html=1;entryX=0.5;entryY=0;entryDx=0;entryDy=0;" edge="1" parent="1" source="a-fWuGN9TzDFCbzUmAFx-4">
          <mxGeometry relative="1" as="geometry">
            <mxPoint x="510" y="690" as="targetPoint" />
          </mxGeometry>
        </mxCell>
        <mxCell id="a-fWuGN9TzDFCbzUmAFx-4" value="&lt;b&gt;Condition&lt;/b&gt;" style="strokeWidth=2;html=1;shape=mxgraph.flowchart.decision;whiteSpace=wrap;" vertex="1" parent="1">
          <mxGeometry x="310" y="550" width="100" height="100" as="geometry" />
        </mxCell>
        <mxCell id="a-fWuGN9TzDFCbzUmAFx-5" value="&lt;b&gt;Print soemthing&lt;/b&gt;" style="rounded=1;whiteSpace=wrap;html=1;absoluteArcSize=1;arcSize=14;strokeWidth=2;" vertex="1" parent="1">
          <mxGeometry x="170" y="680" width="100" height="100" as="geometry" />
        </mxCell>
        <mxCell id="a-fWuGN9TzDFCbzUmAFx-9" value="&lt;b&gt;End&lt;/b&gt;" style="strokeWidth=2;html=1;shape=mxgraph.flowchart.start_2;whiteSpace=wrap;" vertex="1" parent="1">
          <mxGeometry x="310" y="850" width="100" height="100" as="geometry" />
        </mxCell>
        <mxCell id="a-fWuGN9TzDFCbzUmAFx-10" style="edgeStyle=orthogonalEdgeStyle;rounded=0;orthogonalLoop=1;jettySize=auto;html=1;entryX=0;entryY=0.5;entryDx=0;entryDy=0;entryPerimeter=0;" edge="1" parent="1" source="a-fWuGN9TzDFCbzUmAFx-5" target="a-fWuGN9TzDFCbzUmAFx-9">
          <mxGeometry relative="1" as="geometry">
            <Array as="points">
              <mxPoint x="220" y="900" />
            </Array>
          </mxGeometry>
        </mxCell>
        <mxCell id="a-fWuGN9TzDFCbzUmAFx-11" value="&lt;b&gt;Error&lt;/b&gt;" style="strokeWidth=2;html=1;shape=mxgraph.flowchart.start_2;whiteSpace=wrap;" vertex="1" parent="1">
          <mxGeometry x="460" y="690" width="100" height="100" as="geometry" />
        </mxCell>
        <mxCell id="a-fWuGN9TzDFCbzUmAFx-15" style="edgeStyle=orthogonalEdgeStyle;rounded=0;orthogonalLoop=1;jettySize=auto;html=1;entryX=0.5;entryY=0;entryDx=0;entryDy=0;entryPerimeter=0;" edge="1" parent="1" source="a-fWuGN9TzDFCbzUmAFx-3" target="a-fWuGN9TzDFCbzUmAFx-4">
          <mxGeometry relative="1" as="geometry" />
        </mxCell>
        <mxCell id="a-fWuGN9TzDFCbzUmAFx-16" value="&lt;b&gt;Yes&lt;/b&gt;" style="text;html=1;align=center;verticalAlign=middle;resizable=0;points=[];autosize=1;strokeColor=none;fillColor=none;" vertex="1" parent="1">
          <mxGeometry x="160" y="628" width="40" height="30" as="geometry" />
        </mxCell>
      </root>
    </mxGraphModel>
  </diagram>
</mxfile>
